<svg xmlns="http://www.w3.org/2000/svg" xmlns:xlink="http://www.w3.org/1999/xlink" width="193" zoomAndPan="magnify" viewBox="0 0 144.75 38.999999" height="52" preserveAspectRatio="xMidYMid meet" version="1.2"><defs><clipPath id="160ebddd0a"><path d="M 18 3.925781 L 36 3.925781 L 36 26 L 18 26 Z M 18 3.925781 "/></clipPath><clipPath id="c3a2e5e7d8"><path d="M 12.597656 7 L 41.796875 7 L 41.796875 33.875 L 12.597656 33.875 Z M 12.597656 7 "/></clipPath></defs><g id="9638f66ee1"><g style="fill:#40a0d8;fill-opacity:1;"><g transform="translate(36.873276, 34.117527)"><path style="stroke:none" d="M 7.640625 0 L 7.640625 -18.59375 L 0.625 -18.59375 L 0.625 -25.078125 L 22.34375 -25.078125 L 22.34375 -18.59375 L 15.296875 -18.59375 L 15.296875 0 Z M 7.640625 0 "/></g></g><g style="fill:#40a0d8;fill-opacity:1;"><g transform="translate(59.799647, 34.117527)"><path style="stroke:none" d="M 1.828125 0 L 1.828125 -25.078125 L 9.484375 -25.078125 L 9.484375 -6.515625 L 18.625 -6.515625 L 18.625 0 Z M 1.828125 0 "/></g></g><g style="fill:#40a0d8;fill-opacity:1;"><g transform="translate(79.015798, 34.117527)"><path style="stroke:none" d="M 0.0625 0 L 8.78125 -25.078125 L 18.171875 -25.078125 L 26.890625 0 L 18.90625 0 L 17.609375 -4.34375 L 9.3125 -4.34375 L 8.015625 0 Z M 10.5 -9.484375 L 16.421875 -9.484375 L 13.515625 -19.359375 L 13.453125 -19.359375 Z M 10.5 -9.484375 "/></g></g><g style="fill:#40a0d8;fill-opacity:1;"><g transform="translate(105.967418, 34.117527)"><path style="stroke:none" d="M 12.5 0.875 C 10.351562 0.875 8.429688 0.578125 6.734375 -0.015625 C 5.046875 -0.609375 3.679688 -1.519531 2.640625 -2.75 C 1.597656 -3.976562 0.988281 -5.515625 0.8125 -7.359375 L 7.671875 -8.65625 C 7.859375 -7.363281 8.421875 -6.351562 9.359375 -5.625 C 10.304688 -4.90625 11.484375 -4.546875 12.890625 -4.546875 C 14.117188 -4.546875 15.101562 -4.78125 15.84375 -5.25 C 16.582031 -5.71875 16.953125 -6.328125 16.953125 -7.078125 C 16.953125 -7.679688 16.664062 -8.171875 16.09375 -8.546875 C 15.519531 -8.921875 14.601562 -9.222656 13.34375 -9.453125 L 10.125 -9.984375 C 7.082031 -10.515625 4.859375 -11.382812 3.453125 -12.59375 C 2.054688 -13.8125 1.359375 -15.484375 1.359375 -17.609375 C 1.359375 -19.335938 1.832031 -20.828125 2.78125 -22.078125 C 3.726562 -23.328125 5.019531 -24.285156 6.65625 -24.953125 C 8.289062 -25.617188 10.132812 -25.953125 12.1875 -25.953125 C 14.03125 -25.953125 15.703125 -25.648438 17.203125 -25.046875 C 18.710938 -24.453125 19.953125 -23.613281 20.921875 -22.53125 C 21.890625 -21.445312 22.46875 -20.15625 22.65625 -18.65625 L 15.9375 -17.1875 C 15.789062 -18.21875 15.351562 -19.03125 14.625 -19.625 C 13.90625 -20.21875 13.035156 -20.515625 12.015625 -20.515625 C 11.054688 -20.515625 10.285156 -20.296875 9.703125 -19.859375 C 9.117188 -19.429688 8.828125 -18.878906 8.828125 -18.203125 C 8.828125 -17.617188 9.09375 -17.148438 9.625 -16.796875 C 10.164062 -16.453125 11.019531 -16.1875 12.1875 -16 L 15.4375 -15.484375 C 18.519531 -15.035156 20.769531 -14.191406 22.1875 -12.953125 C 23.613281 -11.710938 24.328125 -9.988281 24.328125 -7.78125 C 24.328125 -5.90625 23.820312 -4.328125 22.8125 -3.046875 C 21.800781 -1.765625 20.40625 -0.789062 18.625 -0.125 C 16.851562 0.539062 14.8125 0.875 12.5 0.875 Z M 12.5 0.875 "/></g></g><g style="fill:#40a0d8;fill-opacity:1;"><g transform="translate(130.719002, 34.117527)"><path style="stroke:none" d=""/></g></g><g clip-rule="nonzero" clip-path="url(#160ebddd0a)"><path style=" stroke:none;fill-rule:nonzero;fill:#40a0d8;fill-opacity:1;" d="M 31.386719 3.929688 L 24.804688 3.929688 L 18.4375 25.265625 C 19.464844 25.4375 20.515625 25.515625 21.574219 25.503906 C 23.074219 25.480469 24.554688 25.273438 25.976562 24.878906 C 30.042969 23.753906 33.363281 21.230469 35.375 17.972656 Z M 24.617188 22.558594 L 27.484375 10.367188 L 30.46875 22.558594 Z M 24.617188 22.558594 "/></g><g clip-rule="nonzero" clip-path="url(#c3a2e5e7d8)"><path style=" stroke:none;fill-rule:nonzero;fill:#2f3082;fill-opacity:1;" d="M 41.558594 14.660156 L 41.800781 13.417969 L 39.640625 10.085938 L 40.050781 8.347656 C 40.089844 8.125 40.042969 7.910156 39.925781 7.742188 C 39.8125 7.570312 39.632812 7.441406 39.414062 7.398438 C 38.980469 7.316406 38.558594 7.601562 38.472656 8.039062 L 38.207031 9.792969 L 34.953125 12.082031 L 34.710938 13.320312 L 37.878906 11.957031 L 37.328125 15.585938 L 36.664062 16.050781 L 36.546875 16.652344 L 37.199219 16.355469 L 37.511719 16.214844 C 37.082031 17.644531 36.4375 18.992188 35.609375 20.226562 C 32.695312 24.570312 27.515625 27.496094 21.582031 27.578125 C 20.441406 27.59375 19.328125 27.503906 18.25 27.316406 C 16.214844 26.96875 14.304688 26.273438 12.597656 25.308594 C 14 26.664062 15.65625 27.746094 17.480469 28.476562 L 15.867188 33.871094 L 21.902344 33.871094 L 22.921875 29.539062 C 23.019531 29.539062 23.117188 29.539062 23.210938 29.539062 C 23.226562 29.539062 23.242188 29.539062 23.257812 29.539062 C 24.375 29.519531 25.460938 29.378906 26.5 29.125 C 27.796875 28.8125 29.03125 28.332031 30.171875 27.703125 L 31.703125 27.703125 L 33.183594 33.871094 L 39.886719 33.871094 L 36.34375 21.398438 C 37.15625 19.859375 37.71875 18.164062 37.980469 16.371094 L 38.136719 16.53125 L 38.625 17.027344 L 38.734375 16.457031 L 38.300781 15.789062 L 39.140625 12.210938 Z M 41.558594 14.660156 "/></g></g></svg>