<svg xmlns="http://www.w3.org/2000/svg" width="193" height="52" version="1.2" viewBox="0 0 144.75 39"><defs><clipPath id="a"><path d="M18 3.93h18V26H18Zm0 0"/></clipPath><clipPath id="b"><path d="M12.6 7h29.2v26.88H12.6Zm0 0"/></clipPath></defs><g style="fill:#40a0d8;fill-opacity:1"><path d="M7.64 0v-18.6H.63v-6.48h21.71v6.49H15.3V0Zm0 0" style="stroke:none" transform="translate(36.87 34.12)"/></g><g style="fill:#40a0d8;fill-opacity:1"><path d="M1.83 0v-25.08h7.65v18.56h9.14V0Zm0 0" style="stroke:none" transform="translate(59.8 34.12)"/></g><g style="fill:#40a0d8;fill-opacity:1"><path d="m.06 0 8.72-25.08h9.4L26.88 0h-7.98l-1.3-4.34H9.3L8.01 0ZM10.5-9.48h5.92l-2.9-9.88h-.07Zm0 0" style="stroke:none" transform="translate(79.02 34.12)"/></g><g style="fill:#40a0d8;fill-opacity:1"><path d="M12.5.88c-2.15 0-4.07-.3-5.77-.9a9.24 9.24 0 0 1-4.09-2.73 8.11 8.11 0 0 1-1.83-4.6l6.86-1.3c.19 1.29.75 2.3 1.69 3.03a5.67 5.67 0 0 0 3.53 1.07c1.23 0 2.21-.23 2.95-.7.74-.47 1.11-1.08 1.11-1.83 0-.6-.29-1.1-.86-1.47a7.83 7.83 0 0 0-2.75-.9l-3.21-.53c-3.05-.54-5.27-1.4-6.68-2.61a6.3 6.3 0 0 1-2.1-5.02c0-1.73.48-3.22 1.43-4.47a8.98 8.98 0 0 1 3.88-2.87c1.63-.67 3.47-1 5.53-1 1.84 0 3.51.3 5.01.9 1.51.6 2.75 1.44 3.72 2.52a6.97 6.97 0 0 1 1.74 3.87l-6.72 1.47a3.7 3.7 0 0 0-1.31-2.43c-.72-.6-1.6-.9-2.61-.9-.97 0-1.73.22-2.32.66-.58.43-.87.98-.87 1.66 0 .58.26 1.05.8 1.4.53.35 1.39.61 2.56.8l3.25.52c3.08.44 5.33 1.29 6.75 2.53 1.42 1.24 2.14 2.96 2.14 5.17 0 1.87-.51 3.45-1.52 4.73a9.34 9.34 0 0 1-4.18 2.92c-1.78.67-3.82 1-6.13 1Zm0 0" style="stroke:none" transform="translate(105.97 34.12)"/></g><g clip-path="url(#a)"><path d="M31.39 3.93H24.8l-6.36 21.34a17.82 17.82 0 0 0 7.54-.4 15.99 15.99 0 0 0 9.4-6.9Zm-6.77 18.63 2.86-12.2 2.99 12.2Zm0 0" style="stroke:none;fill-rule:nonzero;fill:#40a0d8;fill-opacity:1"/></g><g clip-path="url(#b)"><path d="m41.56 14.66.24-1.24-2.16-3.33.41-1.74a.8.8 0 0 0-.12-.6.8.8 0 0 0-.52-.35.8.8 0 0 0-.94.64l-.26 1.75-3.26 2.3-.24 1.23 3.17-1.36-.55 3.63-.67.46-.11.6.65-.3.31-.14a14.9 14.9 0 0 1-1.9 4.02 17.1 17.1 0 0 1-14.03 7.35 18 18 0 0 1-8.98-2.27 15.12 15.12 0 0 0 4.88 3.17l-1.61 5.4h6.03l1.02-4.34H23.26a14.74 14.74 0 0 0 6.91-1.84h1.53l1.48 6.17h6.7L36.35 21.4a15.58 15.58 0 0 0 1.64-5.03l.16.16.48.5.11-.57-.43-.67.84-3.58Zm0 0" style="stroke:none;fill-rule:nonzero;fill:#2f3082;fill-opacity:1"/></g></svg>